<svg width="312" height="312" viewBox="0 0 312 312" fill="none" xmlns="http://www.w3.org/2000/svg">
<g filter="url(#filter0_f_313_230)">
<g filter="url(#filter1_d_313_230)">
<g filter="url(#filter2_i_313_230)">
<circle cx="156.029" cy="156.303" r="135.325" fill="url(#paint0_radial_313_230)"/>
</g>
<circle cx="156.029" cy="156.303" r="129.825" stroke="#EBEFF7" stroke-width="11"/>
</g>
<g filter="url(#filter3_i_313_230)">
<path d="M121.56 199.55C126.391 187.973 129.334 171.957 130.638 164.136C131.941 156.316 136.999 99.6685 135.198 91.8486C133.396 84.0286 129.907 83.4147 126.61 83.3C123.314 83.1852 119.749 84.4884 117.794 90.9286C115.839 97.3688 112.326 147.292 110.663 163.687C108.516 184.848 107.98 186.458 102.536 188.221C97.0926 189.985 98.1662 179.328 96.7095 170.281C95.2528 161.234 94.4095 157.4 88.6593 147.587C82.9092 137.773 77.5424 137.62 72.9423 140.073C68.3421 142.527 69.5686 149.81 74.629 163.151C79.6893 176.491 75.3957 211.222 77.8491 220.729C80.3025 230.236 86.7164 234.912 93.7962 234.836C100.927 234.759 106.629 228.646 109.543 223.969C112.456 219.292 116.908 210.7 121.56 199.55Z" fill="#D2D8E4"/>
<rect x="159.645" y="70.2139" width="19.826" height="99.0883" rx="9.91299" transform="rotate(8.50723 159.645 70.2139)" fill="#D2D8E4"/>
<rect x="196.745" y="91.9348" width="19.826" height="89.0546" rx="9.91299" transform="rotate(12.3249 196.745 91.9348)" fill="#D2D8E4"/>
<rect x="230.778" y="122.48" width="19.826" height="76.8907" rx="9.91299" transform="rotate(17.7143 230.778 122.48)" fill="#D2D8E4"/>
</g>
</g>
<g filter="url(#filter4_d_313_230)">
<g filter="url(#filter5_i_313_230)">
<circle cx="145.856" cy="152.911" r="135.325" fill="url(#paint1_radial_313_230)"/>
</g>
<circle cx="145.856" cy="152.911" r="129.825" stroke="#EBEFF7" stroke-width="11"/>
</g>
<g filter="url(#filter6_i_313_230)">
<path d="M111.387 196.159C116.218 184.582 119.161 168.566 120.464 160.745C121.767 152.925 126.826 96.2774 125.024 88.4574C123.223 80.6375 119.734 80.0236 116.437 79.9088C113.14 79.7941 109.576 81.0972 107.621 87.5375C105.666 93.9777 102.153 143.901 100.49 160.296C98.3433 181.457 97.8069 183.067 92.3631 184.83C86.9194 186.594 87.993 175.937 86.5363 166.89C85.0796 157.843 84.2363 154.009 78.4861 144.196C72.7359 134.382 67.3692 134.229 62.7691 136.682C58.1689 139.135 59.3954 146.419 64.4557 159.759C69.5161 173.1 65.2225 207.831 67.6759 217.338C70.1293 226.845 76.5432 231.521 83.623 231.445C90.7534 231.368 96.456 225.255 99.3694 220.578C102.283 215.901 106.735 207.309 111.387 196.159Z" fill="#D2D8E4"/>
<rect x="149.472" y="66.8228" width="19.826" height="99.0883" rx="9.91299" transform="rotate(8.50723 149.472 66.8228)" fill="#D2D8E4"/>
<rect x="186.572" y="88.5437" width="19.826" height="89.0546" rx="9.91299" transform="rotate(12.3249 186.572 88.5437)" fill="#D2D8E4"/>
<rect x="220.605" y="119.089" width="19.826" height="76.8907" rx="9.91299" transform="rotate(17.7143 220.605 119.089)" fill="#D2D8E4"/>
</g>
<g clip-path="url(#clip0_313_230)">
<path style="mix-blend-mode:screen" d="M183.739 86.7963C274.037 69.1362 346.917 53.188 346.521 51.1748C346.124 49.1617 272.602 61.846 182.305 79.5061C92.0068 97.1661 19.1272 113.114 19.5234 115.128C19.9196 117.141 93.4416 104.456 183.739 86.7963Z" fill="url(#paint2_radial_313_230)"/>
<path style="mix-blend-mode:screen" d="M183.421 85.1797C257.396 70.712 317.186 58.0755 316.966 56.9552C316.745 55.8349 256.598 66.6553 182.623 81.123C108.648 95.5907 48.8578 108.227 49.0783 109.347C49.2988 110.468 109.446 99.6475 183.421 85.1797Z" fill="url(#paint3_radial_313_230)"/>
<path style="mix-blend-mode:screen" d="M302.548 198.816C303.981 197.344 251.619 144.355 185.593 80.461C119.568 16.5674 64.8816 -34.0352 63.4482 -32.5632C62.0147 -31.0912 114.377 21.898 180.402 85.7915C246.428 149.685 301.114 200.288 302.548 198.816Z" fill="url(#paint4_radial_313_230)"/>
<path style="mix-blend-mode:screen" d="M280.937 177.903C281.735 177.084 238.533 133.987 184.442 81.6431C130.352 29.2992 85.8562 -12.4697 85.0586 -11.6506C84.2609 -10.8315 127.463 32.2655 181.554 84.6094C235.644 136.953 280.14 178.722 280.937 177.903Z" fill="url(#paint5_radial_313_230)"/>
<path style="mix-blend-mode:screen" d="M186.016 84.3505C215.878 10.2257 238.729 -50.4073 237.056 -51.077C235.383 -51.7468 209.819 7.8003 179.957 81.9251C150.096 156.05 127.244 216.683 128.917 217.353C130.59 218.022 156.154 158.475 186.016 84.3505Z" fill="url(#paint6_radial_313_230)"/>
<path style="mix-blend-mode:screen" d="M184.663 83.809C209.127 23.0837 228.208 -26.4444 227.282 -26.8151C226.356 -27.1857 205.774 21.7414 181.31 82.4666C156.846 143.192 137.765 192.72 138.691 193.091C139.617 193.461 160.2 144.534 184.663 83.809Z" fill="url(#paint7_radial_313_230)"/>
<path style="mix-blend-mode:screen" d="M185.973 84.5935C219.965 12.2578 246.197 -46.9998 244.564 -47.7622C242.932 -48.5245 214.053 9.49706 180.061 81.8328C146.07 154.168 119.838 213.426 121.471 214.188C123.103 214.951 151.982 156.929 185.973 84.5935Z" fill="url(#paint8_radial_313_230)"/>
<path style="mix-blend-mode:screen" d="M185.855 84.884C225.69 15.5749 256.715 -41.3354 255.15 -42.2288C253.586 -43.1223 220.025 12.3395 180.19 81.6486C140.355 150.958 109.331 207.868 110.895 208.761C112.459 209.655 146.02 154.193 185.855 84.884Z" fill="url(#paint9_radial_313_230)"/>
<path style="mix-blend-mode:screen" d="M183.475 86.376C262.803 75.0934 326.904 64.5047 326.649 62.7256C326.394 60.9464 261.88 68.6505 182.553 79.9331C103.226 91.2157 39.125 101.804 39.3797 103.584C39.6343 105.363 104.148 97.6586 183.475 86.376Z" fill="url(#paint10_radial_313_230)"/>
<path style="mix-blend-mode:screen" d="M327.216 99.4197C327.418 97.6338 263.032 88.9342 183.405 79.9887C103.779 71.0431 39.065 65.239 38.8631 67.0249C38.6612 68.8108 103.048 77.5104 182.674 86.4559C262.301 95.4015 327.014 101.206 327.216 99.4197Z" fill="url(#paint11_radial_313_230)"/>
<path style="mix-blend-mode:screen" d="M183.289 89.1846C271.433 84.9948 342.758 78.9075 342.599 75.5881C342.441 72.2688 270.858 72.9745 182.714 77.1642C94.571 81.354 23.2455 87.4413 23.4043 90.7607C23.5631 94.08 95.146 93.3744 183.289 89.1846Z" fill="url(#paint12_radial_313_230)"/>
<path style="mix-blend-mode:screen" d="M273.232 214.676C275.983 212.799 237.808 152.431 187.966 79.8406C138.124 7.24993 95.4893 -50.0748 92.7384 -48.1979C89.9875 -46.3209 128.162 14.047 178.004 86.6377C227.846 159.228 270.481 216.553 273.232 214.676Z" fill="url(#paint13_radial_313_230)"/>
<path style="mix-blend-mode:screen" d="M185.379 88.6735C266.535 54.1329 331.264 23.6546 329.955 20.5984C328.646 17.5422 261.795 43.0654 180.639 77.606C99.4829 112.147 34.754 142.625 36.0629 145.681C37.3719 148.737 104.223 123.214 185.379 88.6735Z" fill="url(#paint14_radial_313_230)"/>
<path style="mix-blend-mode:screen" d="M276.749 193.464C278.125 192.303 237.269 141.939 185.495 80.9725C133.721 20.0064 90.6338 -28.4749 89.2578 -27.3137C87.8818 -26.1525 128.738 24.2115 180.512 85.1776C232.286 146.144 275.373 194.625 276.749 193.464Z" fill="url(#paint15_radial_313_230)"/>
<path style="mix-blend-mode:screen" d="M186.11 84.0294C208.251 7.26041 224.795 -55.3757 223.062 -55.8723C221.33 -56.3688 201.977 5.46214 179.836 82.2311C157.695 159 141.151 221.636 142.884 222.133C144.616 222.629 163.97 160.798 186.11 84.0294Z" fill="url(#paint16_radial_313_230)"/>
<path style="mix-blend-mode:screen" d="M236.022 217.878C237.7 217.221 215.306 156.419 186.003 82.0724C156.7 7.72633 131.585 -52.0103 129.907 -51.3531C128.229 -50.6959 150.623 10.1063 179.926 84.4524C209.229 158.799 234.344 218.535 236.022 217.878Z" fill="url(#paint17_radial_313_230)"/>
<path style="mix-blend-mode:screen" d="M182.991 115.228C200.748 115.228 215.142 100.879 215.142 83.1784C215.142 65.4778 200.748 51.1287 182.991 51.1287C165.235 51.1287 150.84 65.4778 150.84 83.1784C150.84 100.879 165.235 115.228 182.991 115.228Z" fill="url(#paint18_radial_313_230)"/>
<path style="mix-blend-mode:screen" d="M182.991 182.438C237.984 182.438 282.564 137.998 282.564 83.1783C282.564 28.3585 237.984 -16.0818 182.991 -16.0818C127.999 -16.0818 83.4182 28.3585 83.4182 83.1783C83.4182 137.998 127.999 182.438 182.991 182.438Z" fill="url(#paint19_radial_313_230)"/>
</g>
<defs>
<filter id="filter0_f_313_230" x="0.704224" y="0.977539" width="310.65" height="310.65" filterUnits="userSpaceOnUse" color-interpolation-filters="sRGB">
<feFlood flood-opacity="0" result="BackgroundImageFix"/>
<feBlend mode="normal" in="SourceGraphic" in2="BackgroundImageFix" result="shape"/>
<feGaussianBlur stdDeviation="10" result="effect1_foregroundBlur_313_230"/>
</filter>
<filter id="filter1_d_313_230" x="16.7042" y="16.9775" width="280.65" height="280.65" filterUnits="userSpaceOnUse" color-interpolation-filters="sRGB">
<feFlood flood-opacity="0" result="BackgroundImageFix"/>
<feColorMatrix in="SourceAlpha" type="matrix" values="0 0 0 0 0 0 0 0 0 0 0 0 0 0 0 0 0 0 127 0" result="hardAlpha"/>
<feOffset dx="1" dy="1"/>
<feGaussianBlur stdDeviation="2.5"/>
<feComposite in2="hardAlpha" operator="out"/>
<feColorMatrix type="matrix" values="0 0 0 0 0.183333 0 0 0 0 0.183333 0 0 0 0 0.183333 0 0 0 0.48 0"/>
<feBlend mode="normal" in2="BackgroundImageFix" result="effect1_dropShadow_313_230"/>
<feBlend mode="normal" in="SourceGraphic" in2="effect1_dropShadow_313_230" result="shape"/>
</filter>
<filter id="filter2_i_313_230" x="20.7042" y="20.9775" width="271.65" height="271.65" filterUnits="userSpaceOnUse" color-interpolation-filters="sRGB">
<feFlood flood-opacity="0" result="BackgroundImageFix"/>
<feBlend mode="normal" in="SourceGraphic" in2="BackgroundImageFix" result="shape"/>
<feColorMatrix in="SourceAlpha" type="matrix" values="0 0 0 0 0 0 0 0 0 0 0 0 0 0 0 0 0 0 127 0" result="hardAlpha"/>
<feOffset dx="1" dy="1"/>
<feGaussianBlur stdDeviation="0.5"/>
<feComposite in2="hardAlpha" operator="arithmetic" k2="-1" k3="1"/>
<feColorMatrix type="matrix" values="0 0 0 0 0 0 0 0 0 0 0 0 0 0 0 0 0 0 0.1 0"/>
<feBlend mode="normal" in2="shape" result="effect1_innerShadow_313_230"/>
</filter>
<filter id="filter3_i_313_230" x="70.0814" y="71.5698" width="177.039" height="164.767" filterUnits="userSpaceOnUse" color-interpolation-filters="sRGB">
<feFlood flood-opacity="0" result="BackgroundImageFix"/>
<feBlend mode="normal" in="SourceGraphic" in2="BackgroundImageFix" result="shape"/>
<feColorMatrix in="SourceAlpha" type="matrix" values="0 0 0 0 0 0 0 0 0 0 0 0 0 0 0 0 0 0 127 0" result="hardAlpha"/>
<feOffset dy="1.5"/>
<feGaussianBlur stdDeviation="2"/>
<feComposite in2="hardAlpha" operator="arithmetic" k2="-1" k3="1"/>
<feColorMatrix type="matrix" values="0 0 0 0 0 0 0 0 0 0 0 0 0 0 0 0 0 0 0.11 0"/>
<feBlend mode="normal" in2="shape" result="effect1_innerShadow_313_230"/>
</filter>
<filter id="filter4_d_313_230" x="6.53101" y="13.5864" width="280.65" height="280.65" filterUnits="userSpaceOnUse" color-interpolation-filters="sRGB">
<feFlood flood-opacity="0" result="BackgroundImageFix"/>
<feColorMatrix in="SourceAlpha" type="matrix" values="0 0 0 0 0 0 0 0 0 0 0 0 0 0 0 0 0 0 127 0" result="hardAlpha"/>
<feOffset dx="1" dy="1"/>
<feGaussianBlur stdDeviation="2.5"/>
<feComposite in2="hardAlpha" operator="out"/>
<feColorMatrix type="matrix" values="0 0 0 0 0.183333 0 0 0 0 0.183333 0 0 0 0 0.183333 0 0 0 0.48 0"/>
<feBlend mode="normal" in2="BackgroundImageFix" result="effect1_dropShadow_313_230"/>
<feBlend mode="normal" in="SourceGraphic" in2="effect1_dropShadow_313_230" result="shape"/>
</filter>
<filter id="filter5_i_313_230" x="10.531" y="17.5864" width="271.65" height="271.65" filterUnits="userSpaceOnUse" color-interpolation-filters="sRGB">
<feFlood flood-opacity="0" result="BackgroundImageFix"/>
<feBlend mode="normal" in="SourceGraphic" in2="BackgroundImageFix" result="shape"/>
<feColorMatrix in="SourceAlpha" type="matrix" values="0 0 0 0 0 0 0 0 0 0 0 0 0 0 0 0 0 0 127 0" result="hardAlpha"/>
<feOffset dx="1" dy="1"/>
<feGaussianBlur stdDeviation="0.5"/>
<feComposite in2="hardAlpha" operator="arithmetic" k2="-1" k3="1"/>
<feColorMatrix type="matrix" values="0 0 0 0 0 0 0 0 0 0 0 0 0 0 0 0 0 0 0.1 0"/>
<feBlend mode="normal" in2="shape" result="effect1_innerShadow_313_230"/>
</filter>
<filter id="filter6_i_313_230" x="59.9082" y="68.1787" width="177.039" height="164.767" filterUnits="userSpaceOnUse" color-interpolation-filters="sRGB">
<feFlood flood-opacity="0" result="BackgroundImageFix"/>
<feBlend mode="normal" in="SourceGraphic" in2="BackgroundImageFix" result="shape"/>
<feColorMatrix in="SourceAlpha" type="matrix" values="0 0 0 0 0 0 0 0 0 0 0 0 0 0 0 0 0 0 127 0" result="hardAlpha"/>
<feOffset dy="1.5"/>
<feGaussianBlur stdDeviation="2"/>
<feComposite in2="hardAlpha" operator="arithmetic" k2="-1" k3="1"/>
<feColorMatrix type="matrix" values="0 0 0 0 0 0 0 0 0 0 0 0 0 0 0 0 0 0 0.11 0"/>
<feBlend mode="normal" in2="shape" result="effect1_innerShadow_313_230"/>
</filter>
<radialGradient id="paint0_radial_313_230" cx="0" cy="0" r="1" gradientUnits="userSpaceOnUse" gradientTransform="translate(103.664 93.0864) rotate(47.9232) scale(332.773)">
<stop stop-color="white"/>
<stop offset="0.65895" stop-color="#F6F9FF"/>
</radialGradient>
<radialGradient id="paint1_radial_313_230" cx="0" cy="0" r="1" gradientUnits="userSpaceOnUse" gradientTransform="translate(93.4905 89.6953) rotate(47.9232) scale(332.773)">
<stop stop-color="white"/>
<stop offset="0.65895" stop-color="#F6F9FF"/>
</radialGradient>
<radialGradient id="paint2_radial_313_230" cx="0" cy="0" r="1" gradientUnits="userSpaceOnUse" gradientTransform="translate(186.027 119.044) rotate(78.8659) scale(3.61524 166.786)">
<stop stop-color="#8F6E01"/>
<stop offset="0.15" stop-color="#685001"/>
<stop offset="0.32" stop-color="#433400"/>
<stop offset="0.5" stop-color="#261D00"/>
<stop offset="0.67" stop-color="#110D00"/>
<stop offset="0.84" stop-color="#040300"/>
<stop offset="1"/>
</radialGradient>
<radialGradient id="paint3_radial_313_230" cx="0" cy="0" r="1" gradientUnits="userSpaceOnUse" gradientTransform="translate(136.294 -145.28) rotate(78.8659) scale(2.41014 136.571)">
<stop stop-color="#FFC069"/>
<stop offset="0.11" stop-color="#CD9A54"/>
<stop offset="0.24" stop-color="#97723E"/>
<stop offset="0.37" stop-color="#694F2B"/>
<stop offset="0.5" stop-color="#43331C"/>
<stop offset="0.63" stop-color="#261C10"/>
<stop offset="0.76" stop-color="#110D07"/>
<stop offset="0.88" stop-color="#040302"/>
<stop offset="1"/>
</radialGradient>
<radialGradient id="paint4_radial_313_230" cx="0" cy="0" r="1" gradientUnits="userSpaceOnUse" gradientTransform="translate(155.936 102.788) rotate(134.24) scale(3.62035 166.55)">
<stop stop-color="#8F6E01"/>
<stop offset="0.15" stop-color="#685001"/>
<stop offset="0.32" stop-color="#433400"/>
<stop offset="0.5" stop-color="#261D00"/>
<stop offset="0.67" stop-color="#110D00"/>
<stop offset="0.84" stop-color="#040300"/>
<stop offset="1"/>
</radialGradient>
<radialGradient id="paint5_radial_313_230" cx="0" cy="0" r="1" gradientUnits="userSpaceOnUse" gradientTransform="translate(331.174 -72.8686) rotate(134.24) scale(2.41355 136.378)">
<stop stop-color="#FFC069"/>
<stop offset="0.11" stop-color="#CD9A54"/>
<stop offset="0.24" stop-color="#97723E"/>
<stop offset="0.37" stop-color="#694F2B"/>
<stop offset="0.5" stop-color="#43331C"/>
<stop offset="0.63" stop-color="#261C10"/>
<stop offset="0.76" stop-color="#110D07"/>
<stop offset="0.88" stop-color="#040302"/>
<stop offset="1"/>
</radialGradient>
<radialGradient id="paint6_radial_313_230" cx="0" cy="0" r="1" gradientUnits="userSpaceOnUse" gradientTransform="translate(143.217 68.8024) rotate(-158.182) scale(3.62462 144.655)">
<stop stop-color="#8F6E01"/>
<stop offset="0.15" stop-color="#685001"/>
<stop offset="0.32" stop-color="#433400"/>
<stop offset="0.5" stop-color="#261D00"/>
<stop offset="0.67" stop-color="#110D00"/>
<stop offset="0.84" stop-color="#040300"/>
<stop offset="1"/>
</radialGradient>
<radialGradient id="paint7_radial_313_230" cx="0" cy="0" r="1" gradientUnits="userSpaceOnUse" gradientTransform="translate(281.024 139.048) rotate(-158.182) scale(1.20821 118.135)">
<stop stop-color="#FFC069"/>
<stop offset="0.11" stop-color="#CD9A54"/>
<stop offset="0.24" stop-color="#97723E"/>
<stop offset="0.37" stop-color="#694F2B"/>
<stop offset="0.5" stop-color="#43331C"/>
<stop offset="0.63" stop-color="#261C10"/>
<stop offset="0.76" stop-color="#110D07"/>
<stop offset="0.88" stop-color="#040302"/>
<stop offset="1"/>
</radialGradient>
<radialGradient id="paint8_radial_313_230" cx="0" cy="0" r="1" gradientUnits="userSpaceOnUse" gradientTransform="translate(136.127 62.9353) rotate(-154.969) scale(3.62415 144.674)">
<stop stop-color="#8D6D01"/>
<stop offset="0.1" stop-color="#685001"/>
<stop offset="0.2" stop-color="#483701"/>
<stop offset="0.31" stop-color="#2D2300"/>
<stop offset="0.43" stop-color="#191300"/>
<stop offset="0.56" stop-color="#0B0800"/>
<stop offset="0.73" stop-color="#030200"/>
<stop offset="1"/>
</radialGradient>
<radialGradient id="paint9_radial_313_230" cx="0" cy="0" r="1" gradientUnits="userSpaceOnUse" gradientTransform="translate(125.559 52.1287) rotate(-150.268) scale(3.62338 144.705)">
<stop stop-color="#8D6D01"/>
<stop offset="0.1" stop-color="#685001"/>
<stop offset="0.2" stop-color="#483701"/>
<stop offset="0.31" stop-color="#2D2300"/>
<stop offset="0.43" stop-color="#191300"/>
<stop offset="0.56" stop-color="#0B0800"/>
<stop offset="0.73" stop-color="#030200"/>
<stop offset="1"/>
</radialGradient>
<radialGradient id="paint10_radial_313_230" cx="0" cy="0" r="1" gradientUnits="userSpaceOnUse" gradientTransform="translate(156.389 -94.4402) rotate(-98.1453) scale(3.61503 145.039)">
<stop stop-color="#8D6D01"/>
<stop offset="0.1" stop-color="#685001"/>
<stop offset="0.2" stop-color="#483701"/>
<stop offset="0.31" stop-color="#2D2300"/>
<stop offset="0.43" stop-color="#191300"/>
<stop offset="0.56" stop-color="#0B0800"/>
<stop offset="0.73" stop-color="#030200"/>
<stop offset="1"/>
</radialGradient>
<radialGradient id="paint11_radial_313_230" cx="0" cy="0" r="1" gradientUnits="userSpaceOnUse" gradientTransform="translate(203.3 -105.621) rotate(-83.5499) scale(3.61494 145.042)">
<stop stop-color="#8D6D01"/>
<stop offset="0.1" stop-color="#685001"/>
<stop offset="0.2" stop-color="#483701"/>
<stop offset="0.31" stop-color="#2D2300"/>
<stop offset="0.43" stop-color="#191300"/>
<stop offset="0.56" stop-color="#0B0800"/>
<stop offset="0.73" stop-color="#030200"/>
<stop offset="1"/>
</radialGradient>
<radialGradient id="paint12_radial_313_230" cx="0" cy="0" r="1" gradientUnits="userSpaceOnUse" gradientTransform="translate(176.591 80.645) rotate(-92.7386) scale(6.02473 159.552)">
<stop stop-color="#8D6D01"/>
<stop offset="0.1" stop-color="#685001"/>
<stop offset="0.2" stop-color="#483701"/>
<stop offset="0.31" stop-color="#2D2300"/>
<stop offset="0.43" stop-color="#191300"/>
<stop offset="0.56" stop-color="#0B0800"/>
<stop offset="0.73" stop-color="#030200"/>
<stop offset="1"/>
</radialGradient>
<radialGradient id="paint13_radial_313_230" cx="0" cy="0" r="1" gradientUnits="userSpaceOnUse" gradientTransform="translate(182.491 78.6158) rotate(-34.306) scale(6.03763 159.211)">
<stop stop-color="#8D6D01"/>
<stop offset="0.1" stop-color="#685001"/>
<stop offset="0.2" stop-color="#483701"/>
<stop offset="0.31" stop-color="#2D2300"/>
<stop offset="0.43" stop-color="#191300"/>
<stop offset="0.56" stop-color="#0B0800"/>
<stop offset="0.73" stop-color="#030200"/>
<stop offset="1"/>
</radialGradient>
<radialGradient id="paint14_radial_313_230" cx="0" cy="0" r="1" gradientUnits="userSpaceOnUse" gradientTransform="translate(175.592 83.6472) rotate(-113.185) scale(6.02762 159.475)">
<stop stop-color="#8D6D01"/>
<stop offset="0.1" stop-color="#685001"/>
<stop offset="0.2" stop-color="#483701"/>
<stop offset="0.31" stop-color="#2D2300"/>
<stop offset="0.43" stop-color="#191300"/>
<stop offset="0.56" stop-color="#0B0800"/>
<stop offset="0.73" stop-color="#030200"/>
<stop offset="1"/>
</radialGradient>
<radialGradient id="paint15_radial_313_230" cx="0" cy="0" r="1" gradientUnits="userSpaceOnUse" gradientTransform="translate(300.308 -16.8943) rotate(-40.1611) scale(3.62144 144.782)">
<stop stop-color="#8D6D01"/>
<stop offset="0.1" stop-color="#685001"/>
<stop offset="0.2" stop-color="#483701"/>
<stop offset="0.31" stop-color="#2D2300"/>
<stop offset="0.43" stop-color="#191300"/>
<stop offset="0.56" stop-color="#0B0800"/>
<stop offset="0.73" stop-color="#030200"/>
<stop offset="1"/>
</radialGradient>
<radialGradient id="paint16_radial_313_230" cx="0" cy="0" r="1" gradientUnits="userSpaceOnUse" gradientTransform="translate(182.635 82.4541) rotate(15.9922) scale(3.62533 144.627)">
<stop stop-color="#8D6D01"/>
<stop offset="0.1" stop-color="#685001"/>
<stop offset="0.2" stop-color="#483701"/>
<stop offset="0.31" stop-color="#2D2300"/>
<stop offset="0.43" stop-color="#191300"/>
<stop offset="0.56" stop-color="#0B0800"/>
<stop offset="0.73" stop-color="#030200"/>
<stop offset="1"/>
</radialGradient>
<radialGradient id="paint17_radial_313_230" cx="0" cy="0" r="1" gradientUnits="userSpaceOnUse" gradientTransform="translate(286.42 42.0563) rotate(-21.3887) scale(3.62467 144.653)">
<stop stop-color="#8D6D01"/>
<stop offset="0.1" stop-color="#685001"/>
<stop offset="0.2" stop-color="#483701"/>
<stop offset="0.31" stop-color="#2D2300"/>
<stop offset="0.43" stop-color="#191300"/>
<stop offset="0.56" stop-color="#0B0800"/>
<stop offset="0.73" stop-color="#030200"/>
<stop offset="1"/>
</radialGradient>
<radialGradient id="paint18_radial_313_230" cx="0" cy="0" r="1" gradientUnits="userSpaceOnUse" gradientTransform="translate(187.635 85.6494) rotate(21.6332) scale(32.1659 32.0924)">
<stop offset="0.1" stop-color="#FFC069"/>
<stop offset="0.27" stop-color="#AD8247"/>
<stop offset="0.52" stop-color="#312514"/>
<stop offset="0.64"/>
<stop offset="1"/>
</radialGradient>
<radialGradient id="paint19_radial_313_230" cx="0" cy="0" r="1" gradientUnits="userSpaceOnUse" gradientTransform="translate(187.635 85.6493) rotate(21.6332) scale(99.6199 99.392)">
<stop stop-color="#FFC069"/>
<stop offset="0.01" stop-color="#F9BC67"/>
<stop offset="0.12" stop-color="#BF904F"/>
<stop offset="0.24" stop-color="#8C6A3A"/>
<stop offset="0.35" stop-color="#614928"/>
<stop offset="0.46" stop-color="#3E2F1A"/>
<stop offset="0.58" stop-color="#231A0E"/>
<stop offset="0.7" stop-color="#0F0C06"/>
<stop offset="0.81" stop-color="#040302"/>
<stop offset="0.94"/>
</radialGradient>
<clipPath id="clip0_313_230">
<rect width="248" height="186" fill="white" transform="translate(19 36)"/>
</clipPath>
</defs>
</svg>
